<?xml version="1.0" encoding="UTF-8"?>
<!DOCTYPE svg PUBLIC "-//W3C//DTD SVG 1.1//EN" "http://www.w3.org/Graphics/SVG/1.1/DTD/svg11.dtd">
<svg version="1.1" xmlns="http://www.w3.org/2000/svg" xmlns:xlink="http://www.w3.org/1999/xlink" x="0" y="0" width="510" height="510" viewBox="0, 0, 510, 510">
  <g id="Layer_1">
    <path d="M204.352,221.001 C204.083,220.957 203.816,220.912 203.549,220.86 C203.607,221.077 203.665,221.295 203.723,221.513 C203.988,222.635 204.17,223.761 204.305,224.887 C204.54,227.132 204.673,229.417 204.266,231.628 C204.356,229.396 203.907,227.195 203.373,225.06 C203.09,223.994 202.762,222.943 202.365,221.938 C202.154,221.402 201.915,220.868 201.652,220.379 C201.281,220.27 200.914,220.153 200.55,220.021 C200.728,220.427 200.929,220.82 201.089,221.232 C201.441,222.17 201.745,223.129 201.938,224.112 C202.128,225.093 202.218,226.113 202.01,227.079 C202.059,225.098 201.16,223.305 200.234,221.639 C199.746,220.806 199.214,219.998 198.648,219.218 C197.259,218.542 195.944,217.701 194.759,216.641 C193.346,215.383 192.222,213.773 191.564,212.025 C190.967,210.256 190.771,208.351 191.323,206.659 C191.899,210.132 194.029,212.686 196.575,214.323 C199.146,215.97 202.269,216.875 205.337,217.334 C208.444,217.738 211.659,217.651 214.861,217.113 C218.042,216.498 221.29,215.751 224.232,213.919 C223.357,215.468 221.911,216.64 220.442,217.64 C218.933,218.604 217.309,219.393 215.604,219.975 C214.379,220.392 213.107,220.681 211.82,220.904 C212.187,221.936 212.36,223.011 212.357,224.043 C212.357,225.606 212.066,227.099 211.696,228.551 C211.755,227.056 211.719,225.55 211.416,224.14 C211.179,223.03 210.746,222.009 210.128,221.161 C209.625,221.213 209.12,221.217 208.615,221.235 C208.785,221.749 208.925,222.26 209.054,222.772 C209.319,223.895 209.501,225.019 209.637,226.145 C209.871,228.391 210.004,230.677 209.598,232.888 C209.686,230.653 209.24,228.453 208.704,226.32 C208.422,225.254 208.095,224.202 207.698,223.194 C207.425,222.507 207.107,221.817 206.746,221.227 C206.55,221.217 206.355,221.199 206.162,221.183 C206.25,221.495 206.334,221.808 206.414,222.121 C206.68,223.246 206.862,224.368 206.995,225.495 C207.231,227.741 207.364,230.027 206.958,232.239 C207.046,230.003 206.599,227.804 206.064,225.67 C205.783,224.605 205.453,223.553 205.058,222.545 C204.849,222.017 204.612,221.488 204.352,221.001 M224.72,143.55 C225.504,145.363 226.48,147.093 227.783,148.713 C225.957,147.691 224.495,146.041 223.409,144.228 C222.305,142.411 221.573,140.395 221.084,138.346 C220.631,136.285 220.412,134.175 220.53,132.071 C220.644,129.986 221.036,127.85 222.032,126.01 C221.793,128.072 221.844,130.062 222.003,132.053 C222.185,134.035 222.471,136.002 222.927,137.922 C223.357,139.85 223.957,141.733 224.72,143.55 M264.714,127.35 C268.606,128.924 273.345,127.731 275.403,124.406 C275.892,123.574 276.317,122.704 276.565,121.755 C276.833,120.828 276.858,119.953 276.763,118.961 C276.56,117.013 276.003,115.012 275.405,113.033 C274.237,109.043 272.796,105.032 272.214,100.772 C271.882,98.66 271.853,96.476 272.091,94.336 C272.474,92.201 273.312,90.154 274.659,88.524 C272.542,92.253 272.749,96.536 273.649,100.517 C274.532,104.532 275.985,108.446 277.218,112.487 C277.792,114.53 278.376,116.598 278.546,118.83 C278.618,119.926 278.517,121.179 278.142,122.252 C277.823,123.33 277.247,124.331 276.585,125.246 C275.194,127.061 273.116,128.28 270.929,128.617 C268.751,128.903 266.493,128.502 264.714,127.35 M206.95,193.953 L208.607,200.084 C208.607,200.084 205.883,200.149 204.817,200.03 C203.754,199.912 206.95,193.953 206.95,193.953 M191.117,205.527 C189.721,205.415 188.333,205.32 186.947,205.151 C185.563,204.988 184.169,204.845 182.801,204.528 C184.186,204.49 185.574,204.289 186.956,204.185 L191.097,203.807 C192.428,203.619 193.961,203.659 194.948,203.233 C196.167,202.775 197.461,202.256 198.698,201.727 L199.703,201.295 L200.468,202.385 C201.16,203.371 202.041,204.404 202.902,205.14 C203.337,205.506 203.798,205.778 204.167,205.895 C204.562,206.009 204.661,205.982 205.204,205.877 C206.148,205.669 207.268,205.036 208.352,204.326 C209.501,203.593 210.44,202.774 212.142,201.951 L212.658,201.701 L213.234,201.823 C215.899,202.385 218.194,203.184 220.55,203.962 C222.898,204.701 225.203,205.497 227.539,206.06 C229.867,206.706 232.174,206.963 234.683,206.931 C237.144,206.939 239.622,206.895 242.105,206.659 C239.733,207.449 237.267,207.976 234.779,208.337 C233.517,208.511 232.321,208.672 230.983,208.761 C229.676,208.812 228.368,208.784 227.091,208.648 C224.536,208.355 222.039,207.857 219.615,207.234 C217.423,206.732 215.234,206.063 213.198,205.636 C212.412,206.116 211.383,206.86 210.362,207.477 C209.091,208.24 207.752,209.05 205.949,209.433 C205.132,209.64 203.78,209.579 202.881,209.143 C201.952,208.741 201.256,208.186 200.66,207.616 C199.759,206.735 199.075,205.816 198.475,204.811 C197.518,205.075 196.556,205.325 195.53,205.503 C195.166,205.563 194.773,205.631 194.32,205.648 C193.927,205.658 193.579,205.648 193.221,205.639 C192.512,205.623 191.814,205.581 191.117,205.527 M237.246,146.453 C234.337,144.375 232.067,141.613 230.308,138.635 C232.655,141.178 235.209,143.489 238.055,145.225 C240.888,146.958 244.12,147.965 247.335,147.718 C248.938,147.628 250.535,147.254 252.054,146.636 C253.608,146.091 255.021,145.254 256.231,144.209 C257.425,143.151 258.38,141.802 258.864,140.235 C259.329,138.694 259.53,136.89 258.841,135.322 C260.798,138.289 259.874,142.691 257.261,145.269 C255.993,146.616 254.392,147.595 252.737,148.293 C251.087,149.027 249.287,149.471 247.457,149.606 C243.769,149.858 240.095,148.573 237.246,146.453 M258.087,132.855 C256.915,134.525 255.134,135.787 253.173,136.527 C251.206,137.29 249.062,137.526 246.971,137.379 C244.88,137.197 242.819,136.639 240.976,135.651 C239.139,134.682 237.476,133.288 236.464,131.514 C238.067,132.761 239.784,133.654 241.577,134.308 C243.374,134.943 245.236,135.361 247.118,135.491 C250.883,135.793 254.673,135.053 258.087,132.855 M250.922,127.157 C249.9,127.157 249.068,126.327 249.068,125.303 C249.068,124.279 249.9,123.448 250.922,123.448 C251.948,123.448 252.778,124.279 252.778,125.303 C252.778,126.327 251.948,127.157 250.922,127.157 M258.896,127.905 C258.708,127.149 258.339,126.436 257.872,125.827 C256.933,124.597 255.737,123.634 254.501,122.78 C253.231,121.953 251.978,121.217 250.546,120.612 L249.469,120.175 L248.326,119.885 C247.572,119.65 246.765,119.641 245.971,119.568 C244.378,119.617 242.764,119.926 241.352,120.637 C239.957,121.361 238.697,122.268 237.618,123.328 C236.539,124.382 235.591,125.527 234.691,126.683 C233.814,127.868 232.958,129.024 231.958,130.102 C234.444,128.472 236.373,126.175 238.591,124.433 C240.355,123.024 242.318,121.944 244.393,121.593 C242.457,122.784 241.153,124.908 241.153,127.35 C241.153,131.092 244.185,134.127 247.929,134.127 C251.671,134.127 254.706,131.092 254.706,127.35 C254.706,126.171 254.376,125.079 253.849,124.115 C255.032,124.791 256.206,125.506 257.173,126.436 C258.167,127.337 259.048,128.663 258.56,130.102 C259.024,129.509 259.091,128.651 258.896,127.905 M187.189,139.238 C185.083,140.703 182.622,141.422 180.187,141.809 C179.577,141.882 178.995,142 178.178,141.932 C177.431,141.863 176.787,141.618 176.181,141.332 C174.999,140.725 173.986,139.948 173.111,139.051 C171.347,137.282 170.066,135.128 169.246,132.855 C170.703,134.78 172.311,136.518 174.093,137.961 C174.996,138.657 175.933,139.304 176.917,139.708 C177.408,139.887 177.899,140.078 178.35,140.094 C178.727,140.131 179.334,140.032 179.905,139.942 C182.178,139.602 184.423,139.019 186.407,137.978 C188.363,136.939 190.03,135.244 190.615,132.855 C190.706,134.068 190.394,135.324 189.794,136.454 C189.167,137.575 188.233,138.511 187.189,139.238 M233.687,114.772 C231.9,115.526 230.181,116.461 228.602,117.593 C226.99,118.687 225.516,120.013 224.52,121.746 C225.133,119.817 226.553,118.242 228.027,116.871 C229.557,115.533 231.267,114.415 233.065,113.462 C236.667,111.571 240.71,110.456 244.85,110.365 C248.958,110.294 253.298,111.487 256.427,114.311 C257.985,115.695 259.235,117.373 260.187,119.171 C261.063,121.013 261.673,122.943 262.032,124.904 C260.593,121.207 258.573,117.704 255.507,115.438 C252.479,113.156 248.672,112.168 244.875,112.255 C241.063,112.295 237.256,113.278 233.687,114.772 M223.917,111.336 C221.656,112.829 219.58,114.608 217.694,116.628 L217.798,116.7 C215.322,120.172 212.917,123.759 210.906,127.498 C210.425,128.437 209.943,129.387 209.601,130.351 C209.397,130.849 209.311,131.281 209.182,131.811 C209.074,132.365 208.934,132.901 208.785,133.435 C208.153,135.553 207.304,137.554 206.418,139.532 C204.649,143.482 202.617,147.298 200.934,151.244 C200.122,153.231 199.392,155.257 198.816,157.329 C198.526,158.364 198.283,159.414 198.117,160.473 C198.038,161.005 197.974,161.541 197.984,162.076 C197.993,162.594 198.01,163.2 198.426,163.572 C197.993,163.215 197.953,162.6 197.924,162.078 C197.895,161.537 197.941,160.995 197.999,160.459 C198.126,159.386 198.333,158.321 198.586,157.269 C199.09,155.167 199.749,153.103 200.496,151.071 C202.05,147.023 203.938,143.145 205.549,139.158 C206.354,137.171 207.116,135.163 207.643,133.124 C207.764,132.615 207.88,132.105 207.956,131.595 C208.063,131.075 208.177,130.443 208.369,129.933 C208.71,128.853 209.173,127.856 209.637,126.859 C211.573,122.928 213.851,119.25 216.248,115.613 L216.325,115.668 C217.863,113.147 219.866,110.865 222.165,108.968 C226.202,105.585 231.169,103.35 236.338,102.285 C241.527,101.277 246.919,101.455 251.952,102.798 C256.993,104.103 261.673,106.468 265.663,109.594 C260.886,107.839 256.175,106.394 251.374,105.698 C246.584,105.022 241.742,105.031 237.079,105.998 C232.405,106.892 227.929,108.727 223.917,111.336 M507.616,507.484 L500.987,507.436 C462.272,464.636 401.769,397.606 387.661,381.501 C402.593,364.793 422.163,355.58 441.966,356.077 L507.616,507.484 z M232.537,319.31 C231.949,323.044 228.729,325.713 225.055,325.713 C224.674,325.713 224.278,325.695 223.88,325.619 C219.753,324.973 216.912,321.112 217.556,316.964 L217.556,316.984 C218.2,312.834 222.083,310.011 226.21,310.658 C230.358,311.301 233.179,315.164 232.537,319.31 M229.923,336.396 C229.355,340.166 226.135,342.855 222.442,342.855 C222.062,342.855 221.703,342.833 221.324,342.778 C217.176,342.154 214.315,338.309 214.942,334.159 C215.567,330.013 219.413,327.172 223.56,327.798 C227.689,328.404 230.548,332.266 229.923,336.396 M227.423,353.518 C226.872,357.287 223.634,360.013 219.921,360.013 C219.563,360.013 219.203,359.994 218.845,359.938 C214.714,359.35 211.836,355.507 212.421,351.356 C213.01,347.227 216.854,344.35 221.002,344.935 C225.13,345.523 228.009,349.368 227.423,353.518 M225.035,370.617 C224.507,374.427 221.267,377.191 217.518,377.191 C217.196,377.191 216.854,377.151 216.496,377.117 C212.346,376.548 209.449,372.74 210.018,368.592 C210.585,364.444 214.391,361.528 218.542,362.095 C222.688,362.666 225.587,366.489 225.035,370.617 M222.762,387.76 C222.271,391.584 219.014,394.369 215.245,394.369 C214.922,394.369 214.601,394.348 214.279,394.314 C210.131,393.763 207.195,389.974 207.725,385.828 C208.255,381.68 212.064,378.744 216.211,379.275 C220.36,379.803 223.295,383.611 222.762,387.76 M220.624,404.881 C220.169,408.726 216.891,411.566 213.105,411.566 C212.821,411.566 212.516,411.546 212.196,411.511 C208.049,411.017 205.091,407.227 205.587,403.083 C206.079,398.934 209.848,395.96 214.012,396.452 C218.162,396.964 221.116,400.734 220.624,404.881 M218.673,422.02 C218.239,425.904 214.961,428.782 211.136,428.782 C210.867,428.782 210.585,428.763 210.321,428.745 C206.154,428.289 203.144,424.54 203.596,420.393 C204.052,416.224 207.803,413.214 211.949,413.67 C216.114,414.124 219.108,417.872 218.673,422.02 M209.373,446.018 C209.126,446.018 208.9,446.018 208.652,446 C204.488,445.583 201.438,441.89 201.835,437.742 C202.215,433.575 205.926,430.505 210.095,430.903 C214.257,431.301 217.309,434.996 216.912,439.161 C216.53,443.082 213.237,446.018 209.373,446.018 M207.878,463.29 C207.688,463.29 207.499,463.29 207.309,463.273 C203.124,462.949 199.999,459.313 200.319,455.145 C200.641,450.961 204.277,447.855 208.464,448.178 C212.632,448.48 215.756,452.116 215.433,456.303 C215.13,460.279 211.797,463.29 207.878,463.29 M206.779,480.599 C206.664,480.599 206.534,480.599 206.401,480.584 C202.232,480.394 199.014,476.831 199.205,472.644 C199.411,468.482 202.972,465.243 207.139,465.448 C211.324,465.659 214.545,469.219 214.356,473.386 C214.145,477.438 210.795,480.599 206.779,480.599 M206.286,497.932 C202.1,497.912 198.71,494.522 198.729,490.336 C198.729,486.148 202.12,482.761 206.304,482.78 C210.492,482.78 213.882,486.17 213.882,490.356 C213.862,494.542 210.472,497.932 206.286,497.932 M233.143,306.396 C231.723,307.795 229.771,308.612 227.783,308.612 C225.794,308.612 223.844,307.795 222.423,306.396 C221.02,304.995 220.208,303.041 220.208,301.037 C220.208,299.047 221.02,297.096 222.423,295.676 C223.844,294.275 225.794,293.461 227.783,293.461 C229.771,293.461 231.723,294.275 233.143,295.676 C234.543,297.096 235.359,299.047 235.359,301.037 C235.359,303.041 234.543,304.995 233.143,306.396 M245.633,316.529 L246.466,316.617 L268.425,298.79 C258.993,293.7 249.432,288.932 239.502,285.081 C236.145,283.776 232.759,282.55 229.333,281.457 C225.907,280.331 222.42,279.61 218.95,278.75 C211.901,277.485 204.749,276.602 197.531,276.41 C193.93,276.216 190.311,276.31 186.7,276.294 C183.089,276.458 179.472,276.469 175.863,276.787 C172.777,276.962 169.698,277.244 166.622,277.571 L204.474,313.527 L204.189,313.745 C195.007,370.689 179.841,482.047 186.577,505.181 L199.896,505.278 C199.971,505.043 200.018,504.802 200.113,504.579 C200.302,504.123 200.529,503.689 200.812,503.27 C201.077,502.855 201.399,502.475 201.742,502.117 C203.162,500.715 205.113,499.902 207.102,499.902 C209.108,499.902 211.058,500.715 212.461,502.117 C212.821,502.475 213.124,502.855 213.409,503.27 C213.673,503.689 213.919,504.123 214.109,504.579 C214.216,504.836 214.269,505.11 214.344,505.382 L233.777,505.52 C228.911,478.716 243.83,333.805 245.633,316.529 M370.663,408.488 L457.542,507.125 L373.431,506.522 C359.075,472.646 358.282,437.54 370.663,408.488 M359.944,491.093 C361.407,496.225 363.175,501.354 365.218,506.462 L357.351,506.406 C324.337,483.184 306.263,453.052 303.683,416.735 C300.274,368.776 325.794,322.44 344.181,306.096 L369.952,317.277 C353.997,331.202 339.812,349.572 331.585,370.546 C320.253,399.429 315.886,443.869 359.437,491.557 L359.944,491.093 z M71.317,496.04 L64.636,492.47 L66.47,489.038 L73.15,492.607 L71.317,496.04 z M70.133,482.177 L76.814,485.746 L74.981,489.177 L68.3,485.607 L70.133,482.177 z M73.797,475.31 L80.478,478.88 L78.645,482.312 L71.964,478.741 L73.797,475.31 z M77.461,468.449 L84.142,472.018 L82.308,475.449 L75.628,471.88 L77.461,468.449 z M81.125,461.584 L87.806,465.154 L85.972,468.583 L79.293,465.013 L81.125,461.584 z M84.79,454.719 L91.47,458.289 L89.636,461.721 L82.956,458.152 L84.79,454.719 z M88.454,447.856 L95.134,451.427 L93.302,454.855 L86.62,451.288 L88.454,447.856 z M92.118,440.992 L98.797,444.561 L96.963,447.994 L90.284,444.423 L92.118,440.992 z M95.782,434.129 L102.462,437.699 L100.629,441.13 L93.948,437.56 L95.782,434.129 z M108.417,437.85 C107.524,435.746 106.641,433.639 105.754,431.531 L104.293,434.264 L97.613,430.695 L99.445,427.266 L105.266,430.377 C104.469,428.477 103.661,426.588 102.872,424.687 L101.275,423.837 L101.981,422.512 C101.009,420.168 100.055,417.817 99.093,415.468 L54.415,498.369 L61.193,498.922 L62.806,495.902 L69.486,499.473 L69.421,499.594 L75.414,500.083 L74.796,499.746 L108.417,437.85 z M439.687,468.386 L437.147,465.572 L442.771,460.499 L445.31,463.309 L439.687,468.386 z M450.386,468.931 L444.765,474.008 L442.226,471.198 L447.849,466.118 L450.386,468.931 z M455.464,474.551 L449.843,479.631 L447.304,476.821 L452.923,471.742 L455.464,474.551 z M460.542,480.175 L454.919,485.252 L452.382,482.439 L458.005,477.365 L460.542,480.175 z M465.622,485.798 L459.997,490.876 L457.46,488.063 L463.081,482.986 L465.622,485.798 z M470.698,491.421 L465.075,496.497 L462.534,493.687 L468.159,488.607 L470.698,491.421 z M475.774,497.043 L470.153,502.12 L467.616,499.308 L473.239,494.233 L475.774,497.043 z M432.071,459.95 L437.692,454.876 L440.231,457.685 L434.61,462.762 L432.071,459.95 z M426.993,454.33 L432.616,449.25 L435.155,452.063 L429.532,457.141 L426.993,454.33 z M421.917,448.707 L427.538,443.628 L430.077,446.44 L424.454,451.517 L421.917,448.707 z M416.839,443.086 L422.462,438.008 L424.999,440.817 L419.376,445.896 L416.839,443.086 z M411.759,437.464 L417.382,432.385 L419.923,435.195 L414.298,440.276 L411.759,437.464 z M406.683,431.842 L412.306,426.761 L414.845,429.573 L409.224,434.653 L406.683,431.842 z M401.604,426.217 L407.229,421.14 L409.767,423.954 L404.144,429.026 L401.604,426.217 z M396.528,420.595 L402.149,415.516 L404.687,418.328 L399.065,423.408 L396.528,420.595 z M391.45,414.973 L397.071,409.894 L399.612,412.704 L393.989,417.785 L391.45,414.973 z M386.374,409.352 L391.991,404.273 L394.534,407.083 L388.913,412.161 L386.374,409.352 z M381.296,403.728 L386.919,398.651 L389.456,401.465 L383.833,406.538 L381.296,403.728 z M376.216,398.105 L381.839,393.029 L384.378,395.841 L378.755,400.919 L376.216,398.105 z M401.034,402.222 C392.911,393.153 388.063,387.74 385.192,384.417 C383.845,386.057 382.53,387.738 381.272,389.504 C377.851,394.315 374.892,399.399 372.376,404.699 L462.622,507.159 L474.784,507.249 L472.69,504.929 L478.315,499.856 L480.853,502.667 L475.769,507.256 L481.376,507.295 L483.392,505.475 L484.382,506.575 L483.567,507.311 L495.849,507.397 C484.108,494.417 463.983,472.148 443.856,449.832 C428.272,432.55 412.698,415.251 401.034,402.222 M417.294,294.94 L454.585,330.713 L445.151,348.658 C418.806,346.83 392.71,360.362 375.099,385.11 C355.462,412.716 349.702,448.405 358.224,484.458 C320.282,439.951 324.53,398.894 335.11,371.928 C350.688,332.219 388.046,302.118 417.294,294.94 M342.931,186.363 C342.739,188.542 342.46,190.713 342.151,192.876 C341.483,197.195 340.657,201.487 339.759,205.761 C337.929,214.309 335.606,222.742 333.028,231.096 C330.308,239.403 327.304,247.639 323.565,255.565 C319.722,263.361 315.458,271.338 308.749,277.052 C311.843,273.968 314.304,270.362 316.442,266.595 C318.618,262.849 320.511,258.937 322.239,254.962 C325.669,246.991 328.659,238.826 331.228,230.522 C333.938,222.264 336.224,213.869 338.347,205.436 C339.413,201.218 340.39,196.978 341.243,192.715 C341.69,190.588 342.106,188.45 342.435,186.303 C342.61,185.23 342.739,184.152 342.853,183.073 C342.919,181.996 343.091,180.896 342.843,179.829 C343.37,181.967 343.085,184.198 342.931,186.363 M298.13,236.824 C293.241,236.982 288.37,237.539 283.563,238.424 C281.161,238.883 278.786,239.474 276.456,240.227 C274.106,240.928 271.829,241.858 269.608,242.962 C273.655,240.058 278.427,238.273 283.245,237.011 C288.089,235.761 293.073,235.141 298.058,234.933 C303.044,234.771 308.054,234.969 312.983,235.824 C315.442,236.264 317.89,236.802 320.265,237.62 C321.44,238.053 322.599,238.555 323.696,239.169 C324.769,239.799 325.849,240.58 326.427,241.698 C324.819,239.78 322.31,239.126 319.995,238.509 C317.638,237.89 315.212,237.524 312.782,237.267 C307.919,236.768 303.015,236.623 298.13,236.824 M236.908,265.117 C235.117,268.615 233.201,272.052 230.765,275.228 C231.859,271.377 233.473,267.792 235.215,264.267 C237.009,260.768 238.926,257.33 241.357,254.155 C240.26,258.002 238.643,261.589 236.908,265.117 M204.671,265.562 C204.153,266.746 203.626,267.925 203.056,269.084 C202.516,270.261 201.897,271.367 201.425,272.633 C201.109,271.279 201.369,269.881 201.662,268.592 C201.965,267.285 202.432,266.043 202.928,264.818 C204,262.407 205.271,260.087 207.107,258.077 C206.607,260.75 205.665,263.17 204.671,265.562 M185.839,121.746 C185.839,122.771 185.011,123.602 183.985,123.602 C182.961,123.602 182.131,122.771 182.131,121.746 C182.131,120.723 182.961,119.892 183.985,119.892 C185.011,119.892 185.839,120.723 185.839,121.746 M189.654,240.5 C184.606,233.094 178.104,220.925 170.119,200.954 C169.513,192.008 156.667,170.255 159.443,152.681 C162.891,130.844 166.241,131.217 162.527,123.641 C160.341,119.184 160.27,112.327 160.849,106.213 L160.898,106.184 C161.802,105.686 162.735,105.25 163.72,104.928 C165.652,104.222 167.665,103.774 169.677,103.468 C173.702,102.928 177.805,103.001 181.541,104.133 C185.298,105.189 188.576,107.429 191.021,110.549 C191.64,111.316 192.194,112.14 192.703,113 C191.513,111.313 190.082,109.789 188.359,108.522 C186.506,107.241 184.247,106.654 182.104,106.506 C177.813,106.358 173.379,107.386 169.992,110.185 C168.333,111.568 166.986,113.469 166.59,115.643 C166.303,117.84 166.939,119.932 167.887,121.746 C167.324,119.764 166.945,117.735 167.491,115.841 C168.025,113.964 169.311,112.43 170.881,111.328 C172.468,110.24 174.269,109.4 176.184,108.971 C178.081,108.516 180.051,108.242 181.988,108.396 C183.935,108.513 185.773,108.986 187.348,110.004 C187.561,110.14 187.758,110.304 187.963,110.456 C191.08,114.658 192.104,121.233 190.707,123.466 C189.904,121.993 188.896,120.612 187.577,119.494 C187.192,119.146 186.765,118.844 186.337,118.547 C185.099,117.226 183.354,116.391 181.402,116.391 C181.304,116.391 181.214,116.416 181.116,116.42 C180.82,116.367 180.53,116.287 180.229,116.255 C177.511,115.996 174.691,116.546 172.369,118.023 C171.214,118.752 170.197,119.76 169.552,120.991 C168.942,122.241 168.857,123.775 169.544,124.904 C169.426,124.263 169.426,123.637 169.549,123.05 C169.706,122.466 169.985,121.938 170.339,121.471 C171.063,120.54 172.04,119.83 173.1,119.301 C174.269,118.741 175.531,118.387 176.818,118.206 C175.478,119.443 174.625,121.2 174.625,123.167 C174.625,126.91 177.66,129.945 181.402,129.945 C185.146,129.945 188.179,126.91 188.179,123.167 C188.179,122.666 188.118,122.181 188.016,121.712 C188.931,122.501 189.778,123.394 190.579,124.355 C190.496,125.293 190.27,126.026 190.051,126.531 C188.758,127.741 187.426,128.795 185.942,129.496 C184.25,130.291 182.41,130.646 180.562,130.533 C178.713,130.46 176.871,129.944 175.117,129.184 C173.362,128.402 171.705,127.368 170.175,126.01 C171.081,127.854 172.64,129.379 174.425,130.485 C176.214,131.604 178.303,132.297 180.471,132.425 C182.632,132.528 184.874,131.992 186.667,130.783 C188.024,129.898 189.11,128.705 189.91,127.376 C191.045,127.49 195.166,128.09 195.533,130.767 C195,132.321 194.333,133.842 193.716,135.384 C192.676,138.036 191.752,140.778 191.198,143.622 C190.635,146.439 190.258,149.242 189.784,152.038 C189.324,154.823 188.922,157.656 188.194,160.28 C188.016,160.915 187.793,161.592 187.542,161.982 C187.201,162.477 186.693,163.112 186.303,163.731 C185.48,164.987 184.81,166.418 184.544,167.968 C183.988,171.097 185.191,174.287 187.083,176.522 C188.934,178.802 191.063,180.782 193.517,182.362 C194.757,183.12 196.081,183.747 197.476,184.152 C198.521,184.457 199.632,184.656 200.713,184.575 C200.677,184.824 200.644,185.065 200.615,185.293 C200.371,186.033 200.142,186.781 199.872,187.498 C198.938,189.921 197.833,192.315 196.311,194.257 C195.53,195.236 194.73,196.014 193.618,196.539 C192.439,197.131 191.209,197.646 189.944,198.104 C188.68,198.565 187.378,198.965 186.072,199.39 C185.419,199.607 184.761,199.828 184.125,200.124 C183.541,200.401 182.742,200.854 182.801,201.613 C182.882,200.879 183.649,200.639 184.252,200.462 C184.895,200.291 185.565,200.191 186.236,200.093 C187.579,199.905 188.945,199.74 190.314,199.5 C191.682,199.265 193.052,198.96 194.409,198.555 C195.877,198.169 197.297,197.233 198.381,196.247 C200.615,194.223 202.241,191.816 203.714,189.372 C204.875,187.402 205.871,185.398 206.804,183.299 C207.74,185.916 208.768,188.464 210.009,191.011 C210.873,192.722 211.755,194.418 213.134,196.073 L213.679,196.685 L214.385,197.282 C214.732,197.646 215.818,198.082 216.167,198.165 C216.987,198.36 217.876,198.62 218.74,198.863 L229.231,201.916 L234.506,203.378 C236.272,203.824 238.04,204.341 239.857,204.528 C238.088,204.11 236.417,203.372 234.731,202.705 L229.71,200.577 L219.698,196.188 C218.849,195.824 218.032,195.462 217.117,195.11 C216.816,195.017 216.842,194.943 216.77,194.897 C216.718,194.862 216.643,194.832 216.539,194.681 L216.245,194.356 L215.945,193.896 C215.143,192.636 214.5,190.995 213.943,189.368 C213.175,187.085 212.575,184.681 212.042,182.276 C212.571,182.225 213.066,182.152 213.5,182.037 C216.696,181.209 219.852,177.659 220.917,175.29 C221.939,173.023 222.297,169.786 221.805,167.645 C221.766,166.993 221.635,166.341 221.375,165.757 C220.273,163.298 218.182,161.611 215.836,160.728 C214.656,160.3 213.362,160.061 212.054,160.277 C211.406,160.366 210.743,160.668 210.244,160.975 C209.709,161.279 209.207,161.629 208.736,162.01 C207.813,162.798 206.992,163.688 206.328,164.683 C205.676,165.662 205.06,166.77 205.055,167.965 C205.268,166.809 206.007,165.863 206.729,164.991 C207.477,164.123 208.359,163.381 209.296,162.761 C210.229,162.161 211.246,161.541 212.219,161.469 C213.238,161.379 214.307,161.645 215.283,162.089 C217.206,163 218.991,164.538 219.701,166.424 C220.465,168.204 219.599,170.386 218.608,172.35 C218.1,173.338 217.505,174.294 216.836,175.178 C216.269,175.929 215.595,176.673 214.939,177.16 C214.679,177.207 214.442,177.225 214.208,177.229 C213.712,176.653 213.14,176.303 212.575,176.026 C211.4,175.457 210.176,175.22 208.956,175.079 C208.059,174.997 207.155,174.976 206.244,175.091 L206.221,175.094 C205.896,175.136 205.571,175.195 205.245,175.276 C204.649,175.418 203.928,175.75 203.495,176.195 C203.005,176.575 202.585,177.088 202.255,177.651 C201.869,178.36 201.816,179.149 201.938,179.894 C201.314,181.437 200.95,183.048 200.738,184.406 C198.265,184.263 195.987,183.013 194.048,181.574 C191.817,179.939 189.864,177.866 188.275,175.637 C186.683,173.45 185.779,170.811 186.319,168.3 C186.556,167.048 187.11,165.853 187.852,164.747 C188.228,164.169 188.619,163.701 189.094,163.036 C189.604,162.223 189.803,161.522 190.014,160.798 C191.409,155.103 191.858,149.47 192.619,143.863 C192.982,141.098 193.73,138.386 194.578,135.688 C195.333,132.984 196.459,130.235 196.375,127.35 L196.333,127.569 C196.428,126.567 196.454,125.569 196.405,124.587 C196.545,123.583 196.526,122.561 196.379,121.543 C196.563,117.295 195.83,112.795 193.468,108.89 C192.324,106.886 190.715,105.126 188.87,103.665 C186.998,102.232 184.842,101.193 182.614,100.504 C178.11,99.227 173.39,99.369 169.061,100.588 C166.888,101.188 164.809,102.089 162.898,103.27 C162.235,103.696 161.606,104.178 161.006,104.696 C161.424,101.019 162.043,97.721 162.527,95.548 C163.861,89.55 165.045,53.802 167.887,48.751 C169.677,45.568 173.014,35.895 180.487,26.488 C189.229,17.312 204.777,10.24 223.048,7.454 C239.375,4.967 255.173,6.296 267.839,10.847 C270.739,18.442 291.966,34.011 296.438,46.619 C296.507,46.808 296.562,47.018 296.624,47.217 C296.194,46.757 295.772,46.291 295.319,45.859 C292.474,43.156 289.257,40.906 285.784,39.282 C288.94,41.451 291.663,44.144 293.905,47.117 C295.021,48.608 296.013,50.178 296.804,51.802 C297.325,52.87 297.743,53.972 298.032,55.057 C298.171,56.783 298.233,58.615 298.233,60.514 C296.981,58.808 295.638,57.171 294.144,55.681 C292.526,54.096 290.735,52.652 288.718,51.671 C290.573,52.927 292.095,54.565 293.433,56.308 C294.761,58.068 295.903,59.953 296.919,61.896 C297.356,62.734 297.759,63.589 298.147,64.448 C298.056,66.648 297.89,68.909 297.659,71.19 C296.7,69.683 295.692,68.203 294.567,66.817 C292.905,64.792 291.04,62.828 288.718,61.614 C290.868,63.101 292.421,65.211 293.796,67.367 C295.161,69.54 296.304,71.849 297.325,74.207 L297.325,74.208 C297.081,76.174 296.794,78.136 296.472,80.075 C295.782,79.016 295.05,77.984 294.255,76.999 C292.698,75.082 290.911,73.263 288.718,72.147 C290.745,73.538 292.22,75.508 293.479,77.545 C294.468,79.156 295.28,80.872 296.024,82.61 C295.651,84.631 295.241,86.606 294.8,88.51 C294.401,87.924 294.026,87.323 293.597,86.761 C292.046,84.755 290.257,82.823 288.003,81.659 C290.087,83.096 291.556,85.168 292.812,87.287 C293.382,88.266 293.89,89.281 294.37,90.305 C293.95,91.998 293.505,93.611 293.044,95.138 C291.544,93.237 289.829,91.427 287.683,90.319 C289.769,91.758 291.235,93.828 292.491,95.951 C292.56,96.07 292.612,96.198 292.679,96.318 C291.188,101.013 289.538,104.701 287.917,106.594 C281.288,114.328 283.181,146.053 295.493,155.049 C297.421,156.461 299.267,157.633 300.999,158.69 C301.021,159.394 300.915,160.094 300.708,160.761 C300.337,162.1 299.679,163.36 298.972,164.587 C297.524,167.041 295.774,169.339 294.202,171.879 C293.487,173.147 292.644,174.306 292.036,175.866 C291.765,176.648 291.606,177.571 291.774,178.449 C291.864,178.894 292.003,179.317 292.179,179.712 C291.001,182.889 289.72,186.03 288.466,189.179 L283.933,200.733 C283.173,202.657 282.423,204.584 281.704,206.526 C280.979,208.492 280.269,210.357 279.325,212.142 C277.45,215.735 275.122,219.132 272.624,222.378 C267.743,228.977 262.103,235.017 256.173,240.71 C251.019,245.538 245.578,250.124 239.5,253.78 C226.732,258.005 214.887,258.179 205.479,254.316 C199.563,251.16 194.288,246.261 189.654,240.5 M179.037,241.394 C175.795,240.887 172.56,240.387 169.315,240.022 C166.076,239.611 162.827,239.314 159.579,239.222 C156.331,239.162 153.065,239.165 149.814,239.847 C152.847,238.456 156.234,237.927 159.558,237.744 C162.901,237.535 166.241,237.758 169.542,238.143 C176.138,238.969 182.632,240.508 188.798,242.962 L179.037,241.394 z M163.779,221.567 C165.616,221.562 167.409,221.923 169.142,222.401 C170.87,222.909 172.551,223.549 174.139,224.366 C175.733,225.175 177.271,226.1 178.644,227.272 C175.188,226.32 171.938,225.134 168.625,224.222 C166.98,223.736 165.321,223.322 163.65,223.037 C161.973,222.765 160.292,222.579 158.496,222.758 C160.058,221.818 161.964,221.549 163.779,221.567 M144.54,117.347 C144.794,120.031 145.93,122.635 147.247,125.112 C148.593,127.593 150.232,129.936 151.936,132.243 L154.454,135.75 C154.865,136.343 155.277,136.939 155.649,137.561 C155.977,138.187 156.426,138.863 156.319,139.602 C156.328,138.87 155.814,138.29 155.411,137.721 C154.984,137.152 154.525,136.601 154.057,136.058 L151.207,132.816 C149.347,130.614 147.542,128.334 145.988,125.845 C144.432,123.37 143.172,120.599 142.758,117.546 C142.564,116.024 142.651,114.43 143.084,112.914 L143.782,110.801 L144.616,108.752 C147.067,103.409 150.276,98.627 153.014,93.626 C155.764,88.648 157.928,83.31 158.496,77.554 C158.617,80.44 158.167,83.34 157.444,86.159 C156.662,88.963 155.562,91.675 154.305,94.288 C151.826,99.535 148.645,104.377 146.346,109.521 L145.536,111.461 L144.862,113.433 C144.486,114.685 144.408,116.017 144.54,117.347 M149.826,171.099 C148.209,172.765 145.85,174.178 143.167,173.926 C140.463,173.629 138.511,171.674 137.155,169.785 C135.826,167.815 134.85,165.655 134.287,163.317 C133.741,160.977 133.992,158.396 134.977,156.224 C135.936,154.026 137.443,152.221 138.962,150.555 C139.733,149.731 140.537,148.939 141.222,148.072 C141.87,147.202 142.564,146.267 142.554,145.106 C142.777,146.26 142.208,147.391 141.63,148.357 C141.035,149.343 140.331,150.235 139.672,151.147 C138.306,152.921 137.016,154.741 136.325,156.76 C134.764,160.801 136.328,165.181 138.705,168.699 C139.897,170.416 141.489,171.917 143.382,172.146 C145.269,172.437 147.23,171.405 148.833,170.033 C150.341,168.726 151.586,167.064 152.596,165.275 C152.667,165.148 152.747,165.026 152.816,164.898 C153.883,162.971 154.678,160.854 154.865,158.601 C155.036,161.366 154.325,164.112 153.032,166.605 C152.187,168.233 151.1,169.758 149.826,171.099 M130.489,149.361 C129.96,148.97 129.459,148.544 128.947,148.131 L127.682,146.682 C127.26,146.198 126.974,145.642 126.613,145.124 C125.254,143.006 124.349,140.696 123.528,138.338 C122.136,133.54 122.199,128.258 123.906,123.603 C124.101,123.044 124.351,122.517 124.573,121.971 C125.281,120.241 126.072,118.559 126.927,116.934 C127.506,115.872 128.093,114.826 128.58,113.741 C129.007,112.659 129.521,111.513 129.229,110.305 C129.727,111.464 129.378,112.762 129.048,113.916 C128.678,115.085 128.21,116.21 127.76,117.33 C126.81,119.545 125.906,121.755 125.291,124.031 C125.245,124.187 125.215,124.349 125.172,124.507 C124.014,128.9 124.063,133.486 125.34,137.797 C125.751,138.885 126.079,140.009 126.554,141.075 C127.075,142.114 127.496,143.234 128.141,144.182 C129.261,146.161 130.778,148.093 132.765,148.747 C133.744,149.152 134.808,148.963 135.776,148.561 C135.886,148.511 135.983,148.437 136.085,148.378 C136.918,147.894 137.607,147.149 138.205,146.334 C138.462,145.951 138.67,145.532 138.87,145.112 C139.386,144.01 139.701,142.801 139.776,141.552 C139.814,140.906 139.802,140.254 139.713,139.602 C139.955,140.348 140.048,141.131 140.074,141.923 C140.097,142.567 140.051,143.21 139.939,143.853 C139.765,144.872 139.473,145.878 139,146.815 C138.341,147.897 137.52,148.941 136.341,149.616 C135.779,149.915 135.141,150.143 134.486,150.257 C133.78,150.378 133.053,150.367 132.362,150.146 C131.671,150.03 131.118,149.627 130.489,149.361 M130.11,130.982 C130.11,131.316 130.118,131.65 130.145,131.984 C130.281,133.535 130.552,135.051 131.098,136.468 C131.614,137.877 132.398,139.244 133.453,140.155 C133.98,140.638 134.581,140.89 135.213,140.85 C135.904,140.852 136.452,140.213 137.031,139.602 C136.822,140.374 136.481,141.35 135.479,141.741 C134.538,142.123 133.388,141.894 132.617,141.373 C130.959,140.388 129.975,138.78 129.328,137.14 C128.726,135.468 128.502,133.683 128.672,131.949 C128.73,131.267 128.888,130.603 129.09,129.959 C129.401,128.959 129.845,128.008 130.402,127.157 C130.258,128.49 130.105,129.743 130.11,130.982 M151.902,161.519 C151.833,161.873 151.738,162.224 151.651,162.578 C151.156,164.62 150.354,166.632 148.781,168.28 C147.87,169.218 146.416,169.94 144.946,169.746 C143.489,169.574 142.303,168.822 141.315,167.986 C140.302,167.135 139.461,165.987 139.022,164.697 C138.561,163.413 138.477,162.048 138.585,160.76 C138.825,158.159 139.817,155.824 140.888,153.626 C141.425,152.54 142.091,151.461 142.609,150.459 C143.139,149.461 143.53,148.392 143.802,147.287 C143.831,147.171 143.839,147.049 143.867,146.933 C144.827,142.605 143.566,137.75 140.322,134.348 C142.251,135.803 143.732,137.867 144.631,140.186 C145.459,142.525 145.707,145.1 145.266,147.592 C145.208,147.96 145.099,148.319 145.006,148.681 C144.788,149.547 144.506,150.398 144.12,151.206 L142.52,154.427 C141.503,156.529 140.679,158.732 140.455,160.93 C140.198,163.129 140.855,165.248 142.463,166.693 C144.055,168.259 146.225,168.816 147.851,167.275 C149.477,165.832 150.433,163.555 151.069,161.331 L151.111,161.148 C151.409,160.076 151.617,158.973 151.689,157.858 C151.715,156.708 151.772,155.426 151.03,154.457 C151.93,155.32 152.077,156.675 152.154,157.859 C152.206,159.082 152.115,160.31 151.902,161.519 M135.277,108.268 C138.395,100.757 144.069,95.056 148.61,88.86 C150.902,85.762 152.957,82.466 154.236,78.832 C155.607,75.225 156.159,71.362 156.286,67.454 C156.583,71.348 156.223,75.32 155.111,79.128 C153.978,82.936 151.991,86.432 149.796,89.694 C145.39,96.204 139.795,101.858 137.034,108.967 C135.621,112.452 134.789,116.279 135.32,119.928 C135.815,123.617 137.892,126.89 140.475,129.674 C143.065,132.49 146.182,134.848 149.119,137.455 C150.56,138.787 151.994,140.17 153.133,141.802 C153.716,142.605 154.178,143.496 154.539,144.416 C154.871,145.355 155.014,146.342 155.024,147.316 C154.851,145.354 153.95,143.579 152.731,142.105 C151.521,140.614 150.028,139.368 148.518,138.163 C145.5,135.732 142.264,133.497 139.425,130.686 C136.559,127.946 134.257,124.291 133.619,120.194 C132.974,116.097 133.824,111.992 135.277,108.268 M294.001,31.981 C296.343,34.759 298.565,37.668 300.405,40.827 C302.233,43.989 303.95,47.219 304.991,50.809 C305.987,54.377 306.454,58.001 306.886,61.598 C307.312,65.192 307.671,68.788 308.202,72.339 C309.188,79.454 310.765,86.494 313.604,93.028 C316.353,99.584 320.399,105.581 325.563,110.473 C328.044,112.975 330.989,115.243 333.554,117.797 C336.22,120.271 338.716,122.926 341.106,125.669 C345.896,131.14 350.116,137.178 353.138,143.831 C354.536,147.199 355.614,150.725 355.993,154.359 C356.386,157.976 355.97,161.722 354.505,165.044 C355.78,161.643 356.003,157.951 355.497,154.418 C354.987,150.867 353.794,147.458 352.296,144.209 C349.159,137.764 344.88,131.913 340.022,126.632 C338.798,125.319 337.597,123.985 336.298,122.741 C335.036,121.464 333.765,120.194 332.433,118.988 C329.853,116.456 327.022,114.329 324.38,111.722 C319.009,106.712 314.753,100.518 311.864,93.767 C308.978,86.999 307.44,79.775 306.497,72.579 C305.47,65.396 305.204,58.092 303.587,51.2 C301.612,44.412 297.772,38.141 293.286,32.573 C288.81,26.951 283.515,21.961 277.71,17.658 C283.769,21.614 289.229,26.495 294.001,31.981 M308.048,40.152 C311.458,45.877 313.733,52.22 315.28,58.679 C315.708,60.289 315.97,61.931 316.321,63.558 L317.077,68.471 C317.524,71.725 318.106,74.952 318.798,78.144 C320.2,84.522 322.466,90.681 326.077,96.071 C333.3,106.916 343.601,115.474 352.44,125.303 C356.831,130.237 361.132,135.443 363.866,141.582 C365.173,144.649 366.058,147.968 365.979,151.321 C365.995,154.678 364.94,157.944 363.358,160.824 C364.759,157.846 365.618,154.587 365.479,151.324 C365.413,148.061 364.417,144.887 363.021,141.967 C360.198,136.078 355.851,131.06 351.372,126.292 C346.821,121.554 342.083,116.975 337.429,112.276 C332.817,107.54 328.212,102.715 324.493,97.103 C320.786,91.473 318.483,85.015 317.12,78.515 C315.651,71.997 315.265,65.366 313.864,58.998 C312.513,52.606 310.435,46.331 307.247,40.611 C304.147,34.845 299.874,29.721 294.823,25.471 C300.144,29.388 304.626,34.45 308.048,40.152 M338.823,170.516 C339.353,163.699 338.302,156.821 335.21,150.836 C332.015,144.469 327.173,139.083 322.048,134.042 C317.04,128.877 311.542,124.023 307.233,118.041 C305.108,115.053 303.29,111.787 302.212,108.257 C302.165,108.103 302.144,107.942 302.099,107.787 L302.976,107.604 C304.21,111.073 306.097,114.314 308.394,117.174 C312.812,122.789 318.216,127.607 323.388,132.707 C328.442,137.885 333.468,143.44 336.524,150.209 C338.034,153.574 339.036,157.174 339.403,160.826 C339.679,164.073 339.505,167.33 338.942,170.505 C338.872,170.904 338.821,171.307 338.737,171.704 C338.778,171.309 338.794,170.912 338.823,170.516 M329.692,173.716 C329.763,172.947 329.815,172.175 329.856,171.404 C330.157,165.48 329.415,159.52 326.815,154.284 C323.954,148.342 319.292,143.507 314.366,139.038 C309.483,134.513 304.124,130.262 300.04,124.729 C298.019,121.972 296.351,118.902 295.433,115.594 C294.575,112.275 294.435,108.811 294.966,105.489 C294.858,108.847 295.194,112.213 296.313,115.324 C297.38,118.449 299.104,121.294 301.187,123.843 C305.372,128.95 310.659,133.096 315.646,137.643 C320.587,142.18 325.45,147.286 328.144,153.683 C329.493,156.844 330.29,160.231 330.513,163.629 C330.644,166.234 330.497,168.83 330.112,171.377 C329.993,172.162 329.854,172.941 329.692,173.716 M333.913,183.027 C332.313,183.266 330.724,183.578 329.136,183.893 C325.964,184.541 322.798,185.225 319.661,186.023 C316.519,186.785 313.394,187.616 310.306,188.562 C307.241,189.564 304.153,190.529 301.317,192.179 C303.731,189.921 306.776,188.426 309.81,187.174 C312.864,185.922 316.026,184.996 319.212,184.184 C322.405,183.407 325.636,182.792 328.907,182.432 C330.54,182.24 332.187,182.125 333.837,182.101 C335.472,182.156 337.19,182.061 338.737,182.715 C337.12,182.487 335.509,182.772 333.913,183.027 M326.853,198.129 C323.358,198.2 319.87,198.537 316.423,199.099 C312.97,199.639 309.556,200.428 306.212,201.453 C302.87,202.493 299.597,203.777 296.438,205.436 C299.192,203.165 302.372,201.372 305.722,200.065 C309.062,198.72 312.571,197.823 316.122,197.232 C319.679,196.685 323.284,196.42 326.888,196.652 C328.687,196.759 330.485,196.992 332.247,197.43 C333.124,197.653 333.991,197.95 334.817,198.331 C335.624,198.711 336.493,199.234 336.843,200.084 C336.313,199.352 335.454,199.056 334.64,198.801 C333.806,198.568 332.948,198.42 332.079,198.343 C330.351,198.135 328.597,198.108 326.853,198.129 M296.792,217.281 C300.562,215.961 304.495,215.089 308.485,214.605 C312.474,214.174 316.548,214.153 320.519,214.898 C322.499,215.27 324.454,215.812 326.321,216.56 C328.175,217.348 329.933,218.355 331.478,219.601 C329.694,218.714 327.915,217.91 326.017,217.437 C325.089,217.148 324.13,216.963 323.188,216.743 C322.224,216.613 321.278,216.403 320.308,216.34 C316.45,215.96 312.558,216.028 308.696,216.486 C304.833,216.907 301.009,217.704 297.212,218.67 C293.421,219.677 289.698,220.938 285.935,222.211 C289.374,220.227 293.022,218.598 296.792,217.281 M296.155,184.38 L295.497,184.32 C292.214,220.601 261.407,243.793 250.877,249.057 C247.722,250.636 244.599,251.953 241.518,253.066 C243.512,251.965 245.454,250.756 247.359,249.501 C250.771,247.122 254.013,244.51 257.151,241.781 C260.272,239.032 263.235,236.102 266.056,233.045 C268.901,230.01 271.597,226.827 274.134,223.515 C276.638,220.181 278.96,216.69 280.864,212.92 C281.825,211.034 282.565,209.011 283.241,207.091 C283.952,205.148 284.632,203.195 285.302,201.238 C287.704,194.165 290.265,187.133 292.302,179.932 C292.437,180.209 292.577,180.487 292.745,180.726 C293.731,182.157 294.905,183.323 296.155,184.38 M307.198,168.552 L307.29,168.575 L307.198,168.552 M306.612,175.148 C306.47,174.444 306.431,173.662 306.481,172.885 C306.503,172.103 306.606,171.313 306.765,170.55 C306.878,169.816 307.188,168.967 307.409,168.622 L307.663,168.708 C307.874,168.723 308.12,168.724 308.274,168.645 C308.954,168.356 309.181,167.919 309.438,167.534 C309.884,166.735 310.159,165.919 310.31,165.066 C312.886,167.904 313.083,171.439 309.224,178.251 C308.728,179.126 308.425,179.856 308.296,180.452 C306.735,181.289 305.136,181.972 303.618,182.387 C304.835,181.205 306.104,179.9 306.581,178.005 C306.835,177.086 306.802,176.059 306.612,175.148 M306.153,75.66 C305.142,84.416 306.765,93.255 310.192,101.205 C311.94,105.177 314.013,109.001 316.474,112.577 C318.966,116.134 321.796,119.44 324.847,122.525 C327.825,125.691 331.327,128.269 334.45,131.564 C337.513,134.829 340.142,138.494 342.155,142.472 C344.185,146.435 345.749,150.633 346.696,154.973 C347.185,157.139 347.401,159.363 347.468,161.579 C347.466,163.766 347.263,166.124 345.999,167.965 C346.53,166.994 346.819,165.939 346.921,164.853 C347.05,163.771 347.021,162.684 346.966,161.597 C346.759,159.431 346.407,157.277 345.792,155.188 C344.685,150.983 343.001,146.936 340.874,143.161 C338.718,139.405 336.218,135.839 333.204,132.753 C330.249,129.698 326.595,127.064 323.501,123.857 C320.417,120.654 317.558,117.227 315.056,113.548 C312.603,109.836 310.431,105.918 308.851,101.754 C307.249,97.605 306.112,93.27 305.603,88.861 C305.571,88.546 305.562,88.23 305.536,87.915 L305.604,87.9 C305.577,87.804 305.544,87.712 305.517,87.616 C305.2,83.611 305.333,79.568 306.153,75.66 M293.745,129.04 C297.101,134.11 301.571,138.363 306.132,142.507 C310.647,146.696 315.468,150.751 319.185,155.895 C321.013,158.46 322.544,161.311 323.317,164.397 C323.909,166.913 323.966,169.527 323.513,172.032 C323.409,172.598 323.31,173.163 323.151,173.716 C323.245,173.158 323.28,172.606 323.319,172.051 C323.728,166.422 321.528,161.004 318.022,156.774 C314.196,152.042 309.433,148.088 304.854,143.904 C300.306,139.708 295.72,135.287 292.513,129.802 C290.923,127.075 289.692,124.115 289.044,121.028 C288.448,117.934 288.368,114.76 288.862,111.695 C288.614,117.913 290.358,124 293.745,129.04 M301.55,159.026 C305.327,161.306 308.437,163.009 310.302,165.059 C309.78,165.738 309.278,166.427 308.706,166.963 C308.444,167.23 308.087,167.474 307.95,167.446 C307.833,167.41 308.099,167.466 307.821,167.334 C307.351,167.018 306.69,167.274 306.452,167.494 C305.497,168.386 305.339,169.246 305.024,170.122 C304.782,171.001 304.649,171.893 304.591,172.801 C304.571,173.712 304.618,174.638 304.874,175.579 C305.118,176.303 305.169,177.005 305.132,177.751 C305.04,179.245 304.216,180.752 303.618,182.387 C303.108,182.525 302.606,182.644 302.122,182.715 C300.026,183.024 298.671,183.624 297.642,184.859 C297.55,184.754 297.464,184.647 297.376,184.544 L297.382,184.49 L297.329,184.486 C296.091,183.019 294.899,181.539 294.022,179.981 C293.376,178.761 293.177,177.637 293.712,176.501 C294.2,175.345 295.069,174.107 295.821,172.857 C297.286,170.413 299.021,167.999 300.278,165.269 C300.909,163.91 301.435,162.461 301.612,160.93 C301.675,160.304 301.649,159.656 301.55,159.026 M178.644,295.992 C170.535,299.612 162.351,303.041 154.201,306.561 L141.939,311.738 L130.672,316.43 C132.858,331.042 134.949,345.666 136.958,360.302 C139.037,375.284 140.989,390.282 142.934,405.287 C144.821,420.294 146.661,435.307 148.391,450.338 C150.096,465.372 151.705,480.418 153.13,495.489 C150.557,480.572 148.166,465.629 145.873,450.676 C143.603,435.718 141.445,420.745 139.334,405.765 C137.28,390.778 135.236,375.791 133.316,360.787 C131.375,345.786 129.516,330.772 127.76,315.745 L127.633,314.643 L128.629,314.267 L141.093,309.6 L153.581,304.992 C161.934,301.987 170.252,298.895 178.644,295.992 M299.903,417.004 C296.485,368.876 321.552,322.251 340.386,304.45 L328.802,299.424 L329.556,297.684 L329.806,297.794 L371.554,315.908 C378.501,310.015 385.751,304.965 392.97,300.911 L343.333,280.114 L343.722,279.19 L344.065,278.368 L344.226,278.434 L395.099,299.749 C399.71,297.283 404.29,295.228 408.759,293.624 L395.733,294.097 L349.104,270.423 C364.548,243.464 373.339,210.085 364.622,167.969 C366.894,167.654 369.118,167.432 371.251,167.361 C383.562,162.625 378.827,144.634 371.251,133.742 C363.675,122.852 341.421,108.985 333.37,95.254 C325.321,81.522 330.53,65.243 313.011,39.99 C305.815,29.619 294.767,21.371 284.761,15.635 C270.308,4.382 247.326,-0.08 222.479,3.71 C204.619,6.434 189.161,13.194 179.577,22.095 C173.091,27.529 167.698,34.728 162.916,44.726 C160.986,48.759 157.69,56.286 155.813,61.062 C145.396,87.578 125.175,96.506 124.405,116.064 C124.34,117.708 124.342,119.09 124.411,120.296 C118.991,126.215 114.366,132.163 124.355,147.316 C126.873,151.132 129.094,153.665 131.063,155.249 C124.672,171.735 136.143,185.026 148.711,179.829 C151.926,178.5 154.014,176.752 155.342,174.874 C158.998,189.991 159.567,204.392 158.179,208.553 C158.071,208.877 158.036,209.143 157.993,209.415 C142.913,228.218 107.41,273.225 99.466,289.992 C97.717,293.69 97.942,295.948 99.724,297.15 L57.801,316.511 L67.078,363.761 L2,494.092 L50.294,498.031 L97.238,410.935 C92.686,399.698 88.262,388.413 84.008,377.052 C80.056,366.283 76.183,355.479 72.865,344.446 C71.269,338.898 69.661,333.383 68.883,327.455 C68.752,325.928 68.526,324.483 68.95,322.588 L69.195,321.831 C69.285,321.58 69.531,321.245 69.729,320.976 C69.974,320.636 70.088,320.612 70.25,320.468 L70.709,320.105 C71.321,319.634 71.937,319.13 72.557,318.695 C73.813,317.93 75.056,317.124 76.319,316.4 L80.131,314.311 C90.374,309.005 100.869,304.392 111.417,299.903 C115.047,298.401 118.679,296.909 122.314,295.426 C129.288,292.577 136.282,289.786 143.337,287.152 C138.451,289.404 133.556,291.636 128.667,293.88 C123.151,296.413 117.644,298.967 112.171,301.592 C101.83,306.47 91.51,311.448 81.535,316.898 L77.868,319.031 C76.668,319.761 75.529,320.548 74.356,321.3 C73.818,321.7 73.337,322.126 72.82,322.527 L72.437,322.829 C72.33,322.92 72.112,323.071 72.193,323.058 L72.166,323.113 C72.149,323.206 72.124,323.295 72.094,323.382 C71.877,324.29 72.005,325.757 72.169,327.058 C72.961,332.481 74.63,337.992 76.288,343.406 C79.682,354.27 83.551,365.029 87.556,375.73 C93.602,392.022 99.944,408.214 106.34,424.391 L107.417,427.111 C109.081,431.312 110.745,435.511 112.408,439.712 L137.82,503.538 C128.25,483.306 119.084,462.891 110.308,442.306 L78.776,500.357 L133.244,504.799 L180.741,505.14 C173.618,472.172 195.394,332.831 198.333,314.39 L163.364,277.935 C160.329,278.297 157.298,278.692 154.271,279.107 C140.027,281.421 125.548,284.037 112.31,289.485 L110.641,290.172 L110.534,288.568 C110.456,287.397 110.745,287.071 110.911,286.522 C111.104,286.022 111.319,285.577 111.539,285.134 C111.983,284.251 112.453,283.411 112.938,282.583 C113.904,280.928 114.917,279.323 115.945,277.73 C118.007,274.551 120.142,271.428 122.294,268.326 C126.596,262.115 131.029,256.009 135.528,249.949 C144.521,237.833 153.604,225.788 162.916,213.919 C154.161,226.204 145.37,238.458 136.784,250.849 C132.501,257.054 128.229,263.261 124.036,269.511 C121.949,272.643 119.884,275.79 117.906,278.973 C116.916,280.564 115.948,282.168 115.044,283.788 C114.605,284.566 114.188,285.352 113.813,286.136 C119.83,283.674 126.01,281.88 132.23,280.262 C139.346,278.484 146.542,277.055 153.78,275.896 C161.031,274.854 168.303,273.869 175.629,273.41 C179.282,273.066 182.958,273.03 186.625,272.843 C190.3,272.837 193.973,272.717 197.652,272.891 C205.011,273.045 212.365,273.893 219.661,275.163 C223.273,276.026 226.933,276.773 230.443,277.9 C233.967,279.006 237.449,280.226 240.881,281.559 C254.591,286.978 267.493,294.051 280.161,301.255 C283.331,303.049 286.491,304.847 289.673,306.547 C291.263,307.391 292.858,308.221 294.462,308.947 C296.046,309.665 297.724,310.359 299.14,310.581 C299.325,310.622 299.489,310.637 299.612,310.622 C299.724,310.607 299.94,310.661 299.968,310.609 L300.103,310.577 C300.099,310.6 300.112,310.622 300.251,310.457 L302.106,308.473 L305.819,304.508 L309.526,300.534 L313.032,296.387 C322.433,285.39 331.052,273.667 338.118,261.019 C345.21,248.401 350.702,234.878 354.163,220.805 C354.661,219.06 354.964,217.274 355.298,215.493 C355.604,213.709 356.022,211.938 356.243,210.14 L356.882,204.738 C357.142,202.941 357.106,201.122 357.231,199.31 C357.509,192.071 357.159,184.756 355.626,177.618 C357.45,184.684 358.146,192.024 358.062,199.333 C357.991,201.159 358.081,202.998 357.878,204.818 L357.399,210.291 C357.231,212.114 356.868,213.911 356.614,215.726 C356.335,217.536 356.081,219.355 355.634,221.131 C352.657,235.501 347.2,249.285 340.294,262.215 C333.354,275.142 324.937,287.258 315.503,298.475 L311.976,302.699 L308.253,306.74 L304.521,310.78 L302.653,312.8 C302.593,312.907 302.081,313.308 301.724,313.519 C301.321,313.785 300.976,313.799 300.587,313.916 C300.179,314.031 299.925,313.968 299.585,313.99 C299.253,314.002 298.96,313.974 298.698,313.924 C296.507,313.575 294.8,312.803 293.062,312.053 C291.341,311.286 289.698,310.441 288.065,309.591 C284.808,307.876 281.624,306.09 278.438,304.316 C276.304,303.116 274.163,301.929 272.019,300.753 L251.233,317.625 C244.237,384.636 235.065,493.047 239.509,505.561 L350.847,506.359 C319.606,482.897 302.454,452.896 299.903,417.004" fill="#0B0B09"/>
  </g>
</svg>
